<svg width="44" height="44" viewBox="0 0 44 44" fill="none" xmlns="http://www.w3.org/2000/svg">
<rect width="44" height="44" rx="5" fill="#EA5455"/>
<path fill-rule="evenodd" clip-rule="evenodd" d="M31 15H27V14C27 12.3 25.7 11 24 11H20C18.3 11 17 12.3 17 14V15H13C12.4 15 12 15.4 12 16C12 16.6 12.4 17 13 17H14V30C14 31.7 15.3 33 17 33H27C28.7 33 30 31.7 30 30V17H31C31.6 17 32 16.6 32 16C32 15.4 31.6 15 31 15ZM19 14C19 13.4 19.4 13 20 13H24C24.6 13 25 13.4 25 14V15H19V14ZM27 31C27.6 31 28 30.6 28 30V17H16V30C16 30.6 16.4 31 17 31H27ZM21 21V27C21 27.6 20.6 28 20 28C19.4 28 19 27.6 19 27V21C19 20.4 19.4 20 20 20C20.6 20 21 20.4 21 21ZM25 27V21C25 20.4 24.6 20 24 20C23.4 20 23 20.4 23 21V27C23 27.6 23.4 28 24 28C24.6 28 25 27.6 25 27Z" fill="black"/>
<mask id="mask0_46_5192" style="mask-type:luminance" maskUnits="userSpaceOnUse" x="12" y="11" width="20" height="22">
<path fill-rule="evenodd" clip-rule="evenodd" d="M31 15H27V14C27 12.3 25.7 11 24 11H20C18.3 11 17 12.3 17 14V15H13C12.4 15 12 15.4 12 16C12 16.6 12.4 17 13 17H14V30C14 31.7 15.3 33 17 33H27C28.7 33 30 31.7 30 30V17H31C31.6 17 32 16.6 32 16C32 15.4 31.6 15 31 15ZM19 14C19 13.4 19.4 13 20 13H24C24.6 13 25 13.4 25 14V15H19V14ZM27 31C27.6 31 28 30.6 28 30V17H16V30C16 30.6 16.4 31 17 31H27ZM21 21V27C21 27.6 20.6 28 20 28C19.4 28 19 27.6 19 27V21C19 20.4 19.4 20 20 20C20.6 20 21 20.4 21 21ZM25 27V21C25 20.4 24.6 20 24 20C23.4 20 23 20.4 23 21V27C23 27.6 23.4 28 24 28C24.6 28 25 27.6 25 27Z" fill="white"/>
</mask>
<g mask="url(#mask0_46_5192)">
<rect x="10" y="10" width="24" height="24" fill="white"/>
</g>
</svg>
