<svg width="46" height="46" viewBox="0 0 46 46" fill="none" xmlns="http://www.w3.org/2000/svg">
<rect width="46" height="46" rx="23" fill="#55A51C"/>
<path fill-rule="evenodd" clip-rule="evenodd" d="M14.1757 18.2491C14.9873 17.2842 16.3789 16.8125 18.4166 16.8125H27.5833C29.6211 16.8125 31.0126 17.2842 31.8242 18.2491C32.628 19.2047 32.7044 20.4601 32.5756 21.6306L31.8878 28.9674C31.7868 29.9098 31.5502 30.943 30.7088 31.7117C29.8736 32.4748 28.5796 32.8542 26.6666 32.8542H19.3333C17.4204 32.8542 16.1264 32.4748 15.2912 31.7117C14.4497 30.943 14.2132 29.9098 14.1122 28.9674L14.1112 28.9583L13.4243 21.6306C13.2955 20.4601 13.372 19.2047 14.1757 18.2491ZM15.228 19.1342C14.7956 19.6483 14.6738 20.4208 14.7916 21.4852L14.7929 21.4967L15.4799 28.8254C15.5716 29.6773 15.7614 30.279 16.2186 30.6966C16.6827 31.1206 17.5612 31.4792 19.3333 31.4792H26.6666C28.4387 31.4792 29.3172 31.1206 29.7814 30.6966C30.2385 30.279 30.4284 29.6773 30.5201 28.8254L31.2082 21.4852C31.326 20.4208 31.2044 19.6483 30.772 19.1342C30.3461 18.6279 29.4597 18.1875 27.5833 18.1875H18.4166C16.5403 18.1875 15.6538 18.6279 15.228 19.1342Z" fill="white"/>
<path fill-rule="evenodd" clip-rule="evenodd" d="M20.0608 15.7129C20.0219 16.0112 20.0208 16.3501 20.0208 16.7667V17.5C20.0208 17.8797 19.7129 18.1875 19.3333 18.1875C18.9536 18.1875 18.6458 17.8797 18.6458 17.5L18.6458 16.7429C18.6457 16.3546 18.6457 15.9306 18.6974 15.5349C18.7509 15.1249 18.8656 14.6895 19.1344 14.3007C19.6997 13.4827 20.7353 13.1459 22.2666 13.1459H23.7333C25.2645 13.1459 26.3001 13.4827 26.8655 14.3007C27.1342 14.6895 27.2489 15.1249 27.3025 15.5349C27.3541 15.9306 27.3541 16.3547 27.3541 16.7429L27.3541 17.5C27.3541 17.8797 27.0463 18.1875 26.6666 18.1875C26.2869 18.1875 25.9791 17.8797 25.9791 17.5V16.7667C25.9791 16.3501 25.978 16.0112 25.939 15.7129C25.9009 15.4208 25.8323 15.2242 25.7344 15.0825C25.5664 14.8394 25.1353 14.5209 23.7333 14.5209H22.2666C20.8645 14.5209 20.4335 14.8394 20.2655 15.0825C20.1676 15.2242 20.0989 15.4208 20.0608 15.7129Z" fill="white"/>
<path fill-rule="evenodd" clip-rule="evenodd" d="M21.8547 23.6882C21.854 23.7537 21.854 23.8283 21.854 23.9167V24.8608C21.854 25.1189 21.8563 25.3087 21.8787 25.4698C21.9002 25.6246 21.9344 25.7 21.9635 25.7409C21.9958 25.7865 22.157 25.9792 22.9998 25.9792C23.8465 25.9792 24.0058 25.7847 24.0374 25.7395C24.0666 25.6978 24.1008 25.6213 24.122 25.4646C24.144 25.3017 24.1457 25.111 24.1457 24.8517V23.9167C24.1457 23.8283 24.1457 23.7537 24.145 23.6882C24.0795 23.6875 24.0049 23.6875 23.9165 23.6875H22.0832C21.9948 23.6875 21.9202 23.6875 21.8547 23.6882ZM22.0531 22.3125C22.0631 22.3125 22.0732 22.3125 22.0832 22.3125H23.9165C23.9265 22.3125 23.9366 22.3125 23.9466 22.3125C24.1493 22.3125 24.3548 22.3124 24.5224 22.331C24.6932 22.35 24.9771 22.4008 25.2047 22.6285C25.4324 22.8561 25.4832 23.1399 25.5022 23.3108C25.5208 23.4784 25.5207 23.6839 25.5207 23.8866C25.5207 23.8966 25.5207 23.9066 25.5207 23.9167V24.862C25.5207 25.1 25.5207 25.3817 25.4845 25.649C25.447 25.9263 25.3648 26.241 25.1637 26.5283C24.7347 27.1407 23.9774 27.3542 22.9998 27.3542C22.0277 27.3542 21.2722 27.1435 20.8417 26.536C20.6392 26.2504 20.5554 25.9367 20.5168 25.6593C20.4791 25.3881 20.479 25.1024 20.479 24.8608V23.9167C20.479 23.9066 20.479 23.8966 20.479 23.8866C20.479 23.6839 20.4789 23.4784 20.4975 23.3108C20.5165 23.1399 20.5673 22.8561 20.795 22.6285C21.0226 22.4008 21.3064 22.35 21.4773 22.331C21.6449 22.3124 21.8504 22.3125 22.0531 22.3125Z" fill="white"/>
<path fill-rule="evenodd" clip-rule="evenodd" d="M32.4018 21.6791C32.6252 21.9861 32.5573 22.4161 32.2502 22.6394C30.0354 24.2502 27.505 25.2083 24.9192 25.5339C24.5425 25.5813 24.1987 25.3144 24.1512 24.9377C24.1038 24.5609 24.3707 24.2171 24.7474 24.1696C27.1117 23.8719 29.4213 22.9967 31.4415 21.5274C31.7485 21.3041 32.1785 21.372 32.4018 21.6791Z" fill="white"/>
<path fill-rule="evenodd" clip-rule="evenodd" d="M13.8343 21.9426C14.0488 21.6292 14.4767 21.5491 14.79 21.7635C16.7598 23.1118 18.9811 23.9244 21.2432 24.1776C21.6205 24.2199 21.8922 24.56 21.8499 24.9374C21.8077 25.3147 21.4675 25.5864 21.0902 25.5441C18.6039 25.2657 16.1685 24.3733 14.0134 22.8982C13.7 22.6838 13.6199 22.2559 13.8343 21.9426Z" fill="white"/>
</svg>
